<svg width="16" height="17" viewBox="0 0 16 17" fill="none" xmlns="http://www.w3.org/2000/svg">
<path d="M15.7824 14.0453L12.6666 10.9964C12.5259 10.8588 12.3353 10.7824 12.1353 10.7824H11.6259C12.4884 9.70289 13.001 8.34511 13.001 6.86806C13.001 3.35435 10.0914 0.507294 6.50048 0.507294C2.90959 0.507294 0 3.35435 0 6.86806C0 10.3818 2.90959 13.2288 6.50048 13.2288C8.00996 13.2288 9.39756 12.7273 10.5008 11.8833V12.3818C10.5008 12.5775 10.5789 12.764 10.7195 12.9016L13.8354 15.9505C14.1292 16.238 14.6042 16.238 14.8948 15.9505L15.7793 15.0851C16.0731 14.7976 16.0731 14.3328 15.7824 14.0453ZM6.50048 10.7824C4.29094 10.7824 2.50018 9.03317 2.50018 6.86806C2.50018 4.70601 4.28781 2.95374 6.50048 2.95374C8.71001 2.95374 10.5008 4.70296 10.5008 6.86806C10.5008 9.03012 8.71314 10.7824 6.50048 10.7824Z" fill="black"/>
</svg>
